<svg width="15" height="90" viewBox="0 0 15 90" fill="none" xmlns="http://www.w3.org/2000/svg">
<rect x="0.5" y="0.5" width="14" height="89" rx="1.5" fill="#0263B0" stroke="#3B98E8"/>
<rect x="5.5" y="43" width="4" height="4" rx="2" fill="white"/>
<path d="M9 82.89H8.405V81.79H6.055V82.66H5.595C5.55167 82.4267 5.51333 82.225 5.48 82.055C5.44333 81.885 5.37833 81.7317 5.285 81.595V81.055H8.405V80.055H9V82.89ZM9.065 76.5C9.065 76.7867 8.99167 77.0383 8.845 77.255C8.69833 77.4717 8.48167 77.64 8.195 77.76C7.905 77.88 7.54833 77.94 7.125 77.94C6.705 77.94 6.355 77.88 6.075 77.76C5.795 77.64 5.585 77.4717 5.445 77.255C5.30167 77.0383 5.23 76.7867 5.23 76.5C5.23 76.2133 5.30167 75.9617 5.445 75.745C5.585 75.5283 5.795 75.36 6.075 75.24C6.355 75.12 6.705 75.06 7.125 75.06C7.54833 75.06 7.905 75.12 8.195 75.24C8.48167 75.36 8.69833 75.5283 8.845 75.745C8.99167 75.9617 9.065 76.2133 9.065 76.5ZM8.49 76.5C8.49 76.3633 8.44833 76.24 8.365 76.13C8.28167 76.0167 8.14 75.9267 7.94 75.86C7.74 75.7933 7.46833 75.76 7.125 75.76C6.78167 75.76 6.515 75.7933 6.325 75.86C6.13167 75.9267 5.99667 76.0167 5.92 76.13C5.84333 76.24 5.805 76.3633 5.805 76.5C5.805 76.6367 5.84333 76.7617 5.92 76.875C5.99667 76.985 6.13167 77.0733 6.325 77.14C6.515 77.2067 6.78167 77.24 7.125 77.24C7.46833 77.24 7.74 77.2067 7.94 77.14C8.14 77.0733 8.28167 76.985 8.365 76.875C8.44833 76.7617 8.49 76.6367 8.49 76.5ZM9.065 71.5C9.065 71.7867 8.99167 72.0383 8.845 72.255C8.69833 72.4717 8.48167 72.64 8.195 72.76C7.905 72.88 7.54833 72.94 7.125 72.94C6.705 72.94 6.355 72.88 6.075 72.76C5.795 72.64 5.585 72.4717 5.445 72.255C5.30167 72.0383 5.23 71.7867 5.23 71.5C5.23 71.2133 5.30167 70.9617 5.445 70.745C5.585 70.5283 5.795 70.36 6.075 70.24C6.355 70.12 6.705 70.06 7.125 70.06C7.54833 70.06 7.905 70.12 8.195 70.24C8.48167 70.36 8.69833 70.5283 8.845 70.745C8.99167 70.9617 9.065 71.2133 9.065 71.5ZM8.49 71.5C8.49 71.3633 8.44833 71.24 8.365 71.13C8.28167 71.0167 8.14 70.9267 7.94 70.86C7.74 70.7933 7.46833 70.76 7.125 70.76C6.78167 70.76 6.515 70.7933 6.325 70.86C6.13167 70.9267 5.99667 71.0167 5.92 71.13C5.84333 71.24 5.805 71.3633 5.805 71.5C5.805 71.6367 5.84333 71.7617 5.92 71.875C5.99667 71.985 6.13167 72.0733 6.325 72.14C6.515 72.2067 6.78167 72.24 7.125 72.24C7.46833 72.24 7.74 72.2067 7.94 72.14C8.14 72.0733 8.28167 71.985 8.365 71.875C8.44833 71.7617 8.49 71.6367 8.49 71.5ZM9.065 66.5C9.065 66.7867 8.99167 67.0383 8.845 67.255C8.69833 67.4717 8.48167 67.64 8.195 67.76C7.905 67.88 7.54833 67.94 7.125 67.94C6.705 67.94 6.355 67.88 6.075 67.76C5.795 67.64 5.585 67.4717 5.445 67.255C5.30167 67.0383 5.23 66.7867 5.23 66.5C5.23 66.2133 5.30167 65.9617 5.445 65.745C5.585 65.5283 5.795 65.36 6.075 65.24C6.355 65.12 6.705 65.06 7.125 65.06C7.54833 65.06 7.905 65.12 8.195 65.24C8.48167 65.36 8.69833 65.5283 8.845 65.745C8.99167 65.9617 9.065 66.2133 9.065 66.5ZM8.49 66.5C8.49 66.3633 8.44833 66.24 8.365 66.13C8.28167 66.0167 8.14 65.9267 7.94 65.86C7.74 65.7933 7.46833 65.76 7.125 65.76C6.78167 65.76 6.515 65.7933 6.325 65.86C6.13167 65.9267 5.99667 66.0167 5.92 66.13C5.84333 66.24 5.805 66.3633 5.805 66.5C5.805 66.6367 5.84333 66.7617 5.92 66.875C5.99667 66.985 6.13167 67.0733 6.325 67.14C6.515 67.2067 6.78167 67.24 7.125 67.24C7.46833 67.24 7.74 67.2067 7.94 67.14C8.14 67.0733 8.28167 66.985 8.365 66.875C8.44833 66.7617 8.49 66.6367 8.49 66.5ZM4.75 61.83V61.22H6.49L6.49 61.83H4.75ZM6.78 62.66H7.425L7.425 60.365H6.78L6.78 62.66ZM6.225 63.235L6.225 59.75H7.98L7.98 63.235H6.225ZM5.195 61.545L5.195 59.42H5.755L5.755 61.545H5.195ZM8.36 62.405L8.305 61.835C8.415 61.8083 8.535 61.785 8.665 61.765C8.79167 61.745 8.91333 61.7283 9.03 61.715C9.14667 61.7017 9.25 61.695 9.34 61.695L9.415 62.3C9.32833 62.3 9.22333 62.305 9.1 62.315C8.98 62.3217 8.855 62.3333 8.725 62.35C8.595 62.3633 8.47333 62.3817 8.36 62.405ZM8.365 61.375L8.24 60.825C8.34667 60.775 8.46167 60.725 8.585 60.675C8.705 60.6217 8.82167 60.575 8.935 60.535C9.04833 60.495 9.15 60.465 9.24 60.445L9.39 61.03C9.30333 61.0467 9.2 61.0733 9.08 61.11C8.96 61.1433 8.83833 61.1833 8.715 61.23C8.58833 61.2767 8.47167 61.325 8.365 61.375ZM8.335 60.355L8.14 59.82C8.24333 59.7367 8.35833 59.6533 8.485 59.57C8.61167 59.4833 8.73667 59.4033 8.86 59.33C8.98 59.2567 9.09 59.2 9.19 59.16L9.415 59.74C9.31833 59.7767 9.20667 59.8283 9.08 59.895C8.95667 59.9617 8.83 60.0367 8.7 60.12C8.56667 60.2 8.445 60.2783 8.335 60.355ZM8.175 63.225L8.325 62.65C8.52167 62.72 8.72167 62.8133 8.925 62.93C9.12833 63.0467 9.29667 63.17 9.43 63.3L9.16 63.855C9.05 63.7317 8.905 63.6133 8.725 63.5C8.545 63.3867 8.36167 63.295 8.175 63.225Z" fill="white"/>
</svg>
