<svg width="15" height="90" viewBox="0 0 15 90" fill="none" xmlns="http://www.w3.org/2000/svg">
<rect x="0.5" y="0.5" width="14" height="89" rx="1.5" fill="#CD121D" stroke="#DC6566"/>
<rect x="5.5" y="43" width="4" height="4" rx="2" fill="white"/>
<rect x="5.5" y="59" width="4" height="4" rx="2" fill="white"/>
<rect x="5.5" y="27" width="4" height="4" rx="2" fill="white"/>
<rect x="9" y="49" width="2" height="2" rx="1" fill="white"/>
<rect x="6.5" y="53" width="2" height="2" rx="1" fill="white"/>
<rect x="6.5" y="35" width="2" height="2" rx="1" fill="white"/>
<rect x="4" y="49" width="2" height="2" rx="1" fill="white"/>
<rect x="4" y="39" width="2" height="2" rx="1" fill="white"/>
<rect x="9" y="39" width="2" height="2" rx="1" fill="white"/>
<path d="M5.095 83.705L5.095 79.29H5.68L5.68 83.705H5.095ZM6.5 82.105L6.5 80.105H7.08L7.08 82.105H6.5ZM6.5 80.325V79.695C6.5 79.695 6.51667 79.6967 6.55 79.7C6.58 79.7 6.61667 79.7 6.66 79.7C6.70333 79.7 6.73833 79.7017 6.765 79.705C7.15167 79.725 7.48333 79.7467 7.76 79.77C8.03333 79.79 8.26333 79.8133 8.45 79.84C8.63333 79.8667 8.78 79.8983 8.89 79.935C9 79.9717 9.08333 80.015 9.14 80.065C9.22667 80.1383 9.28667 80.2183 9.32 80.305C9.35333 80.3883 9.37667 80.4867 9.39 80.6C9.4 80.7 9.405 80.83 9.405 80.99C9.405 81.1467 9.40167 81.3083 9.395 81.475C9.30833 81.4817 9.20833 81.505 9.095 81.545C8.985 81.585 8.88833 81.6333 8.805 81.69C8.81833 81.5167 8.82667 81.3517 8.83 81.195C8.83333 81.0383 8.835 80.9233 8.835 80.85C8.835 80.7967 8.83167 80.7517 8.825 80.715C8.815 80.6783 8.79667 80.645 8.77 80.615C8.72333 80.5617 8.62 80.5183 8.46 80.485C8.29667 80.4483 8.06333 80.4183 7.76 80.395C7.45333 80.3683 7.06667 80.345 6.6 80.325H6.5ZM5.595 82.535V81.9C5.87833 81.91 6.165 81.9267 6.455 81.95C6.745 81.97 7.03167 82.0083 7.315 82.065C7.595 82.1217 7.865 82.205 8.125 82.315C8.38167 82.425 8.62333 82.5733 8.85 82.76C9.07333 82.9467 9.27 83.1833 9.44 83.47C9.36 83.5133 9.27333 83.5767 9.18 83.66C9.09 83.7433 9.015 83.825 8.955 83.905C8.805 83.6417 8.63333 83.4267 8.44 83.26C8.24667 83.09 8.03667 82.9567 7.81 82.86C7.58333 82.7633 7.34667 82.6933 7.1 82.65C6.85 82.6067 6.59833 82.5783 6.345 82.565C6.09167 82.5517 5.84167 82.5417 5.595 82.535ZM4.75 76.83V76.22H6.49V76.83H4.75ZM6.78 77.66H7.425V75.365H6.78V77.66ZM6.225 78.235L6.225 74.75H7.98V78.235H6.225ZM5.195 76.545V74.42H5.755V76.545H5.195ZM8.36 77.405L8.305 76.835C8.415 76.8083 8.535 76.785 8.665 76.765C8.79167 76.745 8.91333 76.7283 9.03 76.715C9.14667 76.7017 9.25 76.695 9.34 76.695L9.415 77.3C9.32833 77.3 9.22333 77.305 9.1 77.315C8.98 77.3217 8.855 77.3333 8.725 77.35C8.595 77.3633 8.47333 77.3817 8.36 77.405ZM8.365 76.375L8.24 75.825C8.34667 75.775 8.46167 75.725 8.585 75.675C8.705 75.6217 8.82167 75.575 8.935 75.535C9.04833 75.495 9.15 75.465 9.24 75.445L9.39 76.03C9.30333 76.0467 9.2 76.0733 9.08 76.11C8.96 76.1433 8.83833 76.1833 8.715 76.23C8.58833 76.2767 8.47167 76.325 8.365 76.375ZM8.335 75.355L8.14 74.82C8.24333 74.7367 8.35833 74.6533 8.485 74.57C8.61167 74.4833 8.73667 74.4033 8.86 74.33C8.98 74.2567 9.09 74.2 9.19 74.16L9.415 74.74C9.31833 74.7767 9.20667 74.8283 9.08 74.895C8.95667 74.9617 8.83 75.0367 8.7 75.12C8.56667 75.2 8.445 75.2783 8.335 75.355ZM8.175 78.225L8.325 77.65C8.52167 77.72 8.72167 77.8133 8.925 77.93C9.12833 78.0467 9.29667 78.17 9.43 78.3L9.16 78.855C9.05 78.7317 8.905 78.6133 8.725 78.5C8.545 78.3867 8.36167 78.295 8.175 78.225Z" fill="white"/>
</svg>
