<svg width="15" height="90" viewBox="0 0 15 90" fill="none" xmlns="http://www.w3.org/2000/svg">
<rect x="0.5" y="0.5" width="14" height="89" rx="1.5" fill="#009467" stroke="#35C29B"/>
<rect x="6.5" y="48" width="2" height="2" rx="1" fill="white"/>
<rect x="6.5" y="52" width="2" height="2" rx="1" fill="white"/>
<rect x="6.5" y="44" width="2" height="2" rx="1" fill="white"/>
<rect x="6.5" y="40" width="2" height="2" rx="1" fill="white"/>
<rect x="6.5" y="36" width="2" height="2" rx="1" fill="white"/>
<path d="M9.065 81.57C9.065 81.78 9.04167 81.9683 8.995 82.135C8.94833 82.3017 8.88333 82.4517 8.8 82.585C8.71667 82.715 8.62 82.8367 8.51 82.95L8.055 82.605C8.175 82.475 8.27333 82.335 8.35 82.185C8.42667 82.0317 8.465 81.855 8.465 81.655C8.465 81.5117 8.44 81.3833 8.39 81.27C8.33667 81.1567 8.26 81.0667 8.16 81C8.05667 80.93 7.93167 80.895 7.785 80.895C7.63833 80.895 7.51667 80.9283 7.42 80.995C7.32 81.0617 7.245 81.1517 7.195 81.265C7.14167 81.3783 7.115 81.505 7.115 81.645C7.115 81.7783 7.13 81.9017 7.16 82.015C7.19 82.1283 7.24333 82.245 7.32 82.365L7.11 82.7L5.285 82.6L5.285 80.31H5.905L5.905 81.965L6.705 82.03C6.665 81.94 6.635 81.8467 6.615 81.75C6.595 81.65 6.585 81.545 6.585 81.435C6.585 81.2117 6.62667 81.0033 6.71 80.81C6.79333 80.6133 6.92333 80.4567 7.1 80.34C7.27333 80.22 7.49667 80.16 7.77 80.16C7.98 80.16 8.165 80.1983 8.325 80.275C8.485 80.3483 8.62 80.4517 8.73 80.585C8.84 80.715 8.92333 80.865 8.98 81.035C9.03667 81.205 9.065 81.3833 9.065 81.57ZM9.065 76.5C9.065 76.7867 8.99167 77.0383 8.845 77.255C8.69833 77.4717 8.48167 77.64 8.195 77.76C7.905 77.88 7.54833 77.94 7.125 77.94C6.705 77.94 6.355 77.88 6.075 77.76C5.795 77.64 5.585 77.4717 5.445 77.255C5.30167 77.0383 5.23 76.7867 5.23 76.5C5.23 76.2133 5.30167 75.9617 5.445 75.745C5.585 75.5283 5.795 75.36 6.075 75.24C6.355 75.12 6.705 75.06 7.125 75.06C7.54833 75.06 7.905 75.12 8.195 75.24C8.48167 75.36 8.69833 75.5283 8.845 75.745C8.99167 75.9617 9.065 76.2133 9.065 76.5ZM8.49 76.5C8.49 76.3633 8.44833 76.24 8.365 76.13C8.28167 76.0167 8.14 75.9267 7.94 75.86C7.74 75.7933 7.46833 75.76 7.125 75.76C6.78167 75.76 6.515 75.7933 6.325 75.86C6.13167 75.9267 5.99667 76.0167 5.92 76.13C5.84333 76.24 5.805 76.3633 5.805 76.5C5.805 76.6367 5.84333 76.7617 5.92 76.875C5.99667 76.985 6.13167 77.0733 6.325 77.14C6.515 77.2067 6.78167 77.24 7.125 77.24C7.46833 77.24 7.74 77.2067 7.94 77.14C8.14 77.0733 8.28167 76.985 8.365 76.875C8.44833 76.7617 8.49 76.6367 8.49 76.5ZM9.065 71.5C9.065 71.7867 8.99167 72.0383 8.845 72.255C8.69833 72.4717 8.48167 72.64 8.195 72.76C7.905 72.88 7.54833 72.94 7.125 72.94C6.705 72.94 6.355 72.88 6.075 72.76C5.795 72.64 5.585 72.4717 5.445 72.255C5.30167 72.0383 5.23 71.7867 5.23 71.5C5.23 71.2133 5.30167 70.9617 5.445 70.745C5.585 70.5283 5.795 70.36 6.075 70.24C6.355 70.12 6.705 70.06 7.125 70.06C7.54833 70.06 7.905 70.12 8.195 70.24C8.48167 70.36 8.69833 70.5283 8.845 70.745C8.99167 70.9617 9.065 71.2133 9.065 71.5ZM8.49 71.5C8.49 71.3633 8.44833 71.24 8.365 71.13C8.28167 71.0167 8.14 70.9267 7.94 70.86C7.74 70.7933 7.46833 70.76 7.125 70.76C6.78167 70.76 6.515 70.7933 6.325 70.86C6.13167 70.9267 5.99667 71.0167 5.92 71.13C5.84333 71.24 5.805 71.3633 5.805 71.5C5.805 71.6367 5.84333 71.7617 5.92 71.875C5.99667 71.985 6.13167 72.0733 6.325 72.14C6.515 72.2067 6.78167 72.24 7.125 72.24C7.46833 72.24 7.74 72.2067 7.94 72.14C8.14 72.0733 8.28167 71.985 8.365 71.875C8.44833 71.7617 8.49 71.6367 8.49 71.5ZM4.75 66.83V66.22H6.49V66.83H4.75ZM6.78 67.66H7.425V65.365H6.78V67.66ZM6.225 68.235V64.75H7.98V68.235H6.225ZM5.195 66.545L5.195 64.42H5.755L5.755 66.545H5.195ZM8.36 67.405L8.305 66.835C8.415 66.8083 8.535 66.785 8.665 66.765C8.79167 66.745 8.91333 66.7283 9.03 66.715C9.14667 66.7017 9.25 66.695 9.34 66.695L9.415 67.3C9.32833 67.3 9.22333 67.305 9.1 67.315C8.98 67.3217 8.855 67.3333 8.725 67.35C8.595 67.3633 8.47333 67.3817 8.36 67.405ZM8.365 66.375L8.24 65.825C8.34667 65.775 8.46167 65.725 8.585 65.675C8.705 65.6217 8.82167 65.575 8.935 65.535C9.04833 65.495 9.15 65.465 9.24 65.445L9.39 66.03C9.30333 66.0467 9.2 66.0733 9.08 66.11C8.96 66.1433 8.83833 66.1833 8.715 66.23C8.58833 66.2767 8.47167 66.325 8.365 66.375ZM8.335 65.355L8.14 64.82C8.24333 64.7367 8.35833 64.6533 8.485 64.57C8.61167 64.4833 8.73667 64.4033 8.86 64.33C8.98 64.2567 9.09 64.2 9.19 64.16L9.415 64.74C9.31833 64.7767 9.20667 64.8283 9.08 64.895C8.95667 64.9617 8.83 65.0367 8.7 65.12C8.56667 65.2 8.445 65.2783 8.335 65.355ZM8.175 68.225L8.325 67.65C8.52167 67.72 8.72167 67.8133 8.925 67.93C9.12833 68.0467 9.29667 68.17 9.43 68.3L9.16 68.855C9.05 68.7317 8.905 68.6133 8.725 68.5C8.545 68.3867 8.36167 68.295 8.175 68.225Z" fill="white"/>
</svg>
